<?xml version="1.0" encoding="UTF-8" standalone="no"?>
<svg
   width="16"
   height="16"
   viewBox="0 0 16 16"
   version="1.1"
   id="svg1"
   xmlns="http://www.w3.org/2000/svg"
   xmlns:svg="http://www.w3.org/2000/svg">
  <defs
     id="defs1" />
  <g
     id="layer1">
    <g
       id="g11"
       transform="translate(0,-5)">
      <circle
         style="fill:#edeae8;fill-opacity:1;stroke:none;stroke-width:2;stroke-linecap:butt;stroke-linejoin:miter;stroke-dasharray:none;stroke-opacity:1"
         id="path19"
         cx="8"
         cy="13"
         r="8" />
      <g
         id="g19"
         transform="matrix(0.875,0,0,0.875,1,0.875)">
        <path
           style="fill:#2f4673;fill-opacity:1;stroke:none;stroke-width:2;stroke-linecap:butt;stroke-linejoin:miter;stroke-dasharray:none;stroke-opacity:1"
           d="m 0,13 h 16 c 0,0 -4,4 -8,4 -4,0 -8,-4 -8,-4 z"
           id="path18" />
        <path
           id="path17"
           style="fill:#5872a6;fill-opacity:1;stroke:none;stroke-width:2;stroke-linecap:butt;stroke-linejoin:miter;stroke-dasharray:none;stroke-opacity:1"
           d="m 4,11 c -1.999998,0 -4,2 -4,2 0,0 4.000004,2 8,2 3.999996,0 8,-2 8,-2 0,0 -2.000002,-2 -4,-2 -1.999998,0 -4,2 -4,2 0,0 -2.000002,-2 -4,-2 z" />
      </g>
    </g>
  </g>
</svg>
